<svg width="459" height="386" viewBox="0 0 459 386" fill="none" xmlns="http://www.w3.org/2000/svg">
<path d="M12.584 55.08C15.944 55.24 20.344 55.4 25.784 55.56C31.224 55.72 36.584 55.8 41.864 55.8C49.384 55.8 56.584 55.72 63.464 55.56C70.344 55.4 75.224 55.32 78.104 55.32C97.464 55.32 111.944 59.72 121.544 68.52C131.144 77.32 135.944 88.68 135.944 102.6C135.944 108.36 134.984 114.44 133.064 120.84C131.144 127.08 127.784 132.92 122.984 138.36C118.344 143.64 111.944 147.96 103.784 151.32C95.624 154.68 85.304 156.36 72.824 156.36H49.784V151.56H70.424C81.784 151.56 90.424 149.4 96.344 145.08C102.424 140.76 106.504 135.08 108.584 128.04C110.824 121 111.944 113.4 111.944 105.24C111.944 90.04 108.904 78.68 102.824 71.16C96.904 63.64 86.664 59.88 72.104 59.88C64.744 59.88 59.944 61.24 57.704 63.96C55.464 66.68 54.344 72.2 54.344 80.52V199.56C54.344 205.32 54.904 209.64 56.024 212.52C57.304 215.4 59.704 217.32 63.224 218.28C66.744 219.24 71.864 219.88 78.584 220.2V225C74.424 224.68 69.144 224.52 62.744 224.52C56.344 224.36 49.864 224.28 43.304 224.28C37.064 224.28 31.224 224.36 25.784 224.52C20.344 224.52 15.944 224.68 12.584 225V220.2C18.024 219.88 22.104 219.24 24.824 218.28C27.704 217.32 29.624 215.4 30.584 212.52C31.544 209.64 32.024 205.32 32.024 199.56V80.52C32.024 74.6 31.544 70.28 30.584 67.56C29.624 64.68 27.704 62.76 24.824 61.8C22.104 60.68 18.024 60.04 12.584 59.88V55.08ZM206.077 98.04C216.317 98.04 225.517 100.28 233.677 104.76C241.837 109.24 248.317 116.28 253.117 125.88C258.077 135.48 260.557 147.96 260.557 163.32C260.557 178.68 258.077 191.16 253.117 200.76C248.317 210.2 241.837 217.16 233.677 221.64C225.517 226.12 216.317 228.36 206.077 228.36C195.997 228.36 186.797 226.12 178.477 221.64C170.317 217.16 163.757 210.2 158.797 200.76C153.997 191.16 151.597 178.68 151.597 163.32C151.597 147.96 153.997 135.48 158.797 125.88C163.757 116.28 170.317 109.24 178.477 104.76C186.797 100.28 195.997 98.04 206.077 98.04ZM206.077 102.84C196.957 102.84 189.437 107.56 183.517 117C177.757 126.44 174.877 141.88 174.877 163.32C174.877 184.76 177.757 200.2 183.517 209.64C189.437 218.92 196.957 223.56 206.077 223.56C215.197 223.56 222.637 218.92 228.397 209.64C234.317 200.2 237.277 184.76 237.277 163.32C237.277 141.88 234.317 126.44 228.397 117C222.637 107.56 215.197 102.84 206.077 102.84ZM314.577 36.84V202.68C314.577 209.4 315.937 213.96 318.657 216.36C321.537 218.76 326.257 219.96 332.817 219.96V225C330.097 224.84 325.937 224.68 320.337 224.52C314.897 224.2 309.377 224.04 303.777 224.04C298.337 224.04 292.817 224.2 287.217 224.52C281.617 224.68 277.457 224.84 274.737 225V219.96C281.297 219.96 285.937 218.76 288.657 216.36C291.537 213.96 292.977 209.4 292.977 202.68V65.64C292.977 58.44 291.697 53.16 289.137 49.8C286.577 46.28 281.777 44.52 274.737 44.52V39.48C279.857 39.96 284.817 40.2 289.617 40.2C294.257 40.2 298.657 39.96 302.817 39.48C307.137 38.84 311.057 37.96 314.577 36.84ZM379.169 226.68C372.609 226.68 366.929 225.48 362.129 223.08C357.329 220.52 353.649 217 351.089 212.52C348.689 208.04 347.489 202.84 347.489 196.92C347.489 189.88 349.089 184.12 352.289 179.64C355.649 175.16 359.889 171.56 365.009 168.84C370.129 166.12 375.489 163.88 381.089 162.12C386.849 160.2 392.289 158.44 397.409 156.84C402.529 155.08 406.689 153.08 409.889 150.84C413.249 148.6 414.929 145.64 414.929 141.96V127.08C414.929 120.36 413.889 115.24 411.809 111.72C409.889 108.2 407.249 105.88 403.889 104.76C400.529 103.48 396.769 102.84 392.609 102.84C388.609 102.84 384.289 103.4 379.649 104.52C375.169 105.64 371.569 107.96 368.849 111.48C371.889 112.12 374.529 113.72 376.769 116.28C379.009 118.84 380.129 122.12 380.129 126.12C380.129 130.12 378.849 133.32 376.289 135.72C373.729 137.96 370.449 139.08 366.449 139.08C361.809 139.08 358.369 137.64 356.129 134.76C354.049 131.72 353.009 128.36 353.009 124.68C353.009 120.52 354.049 117.16 356.129 114.6C358.209 112.04 360.849 109.64 364.049 107.4C367.729 104.84 372.449 102.68 378.209 100.92C384.129 99 390.769 98.04 398.129 98.04C404.689 98.04 410.289 98.84 414.929 100.44C419.569 101.88 423.409 104.04 426.449 106.92C430.609 110.76 433.329 115.48 434.609 121.08C435.889 126.52 436.529 133.08 436.529 140.76V207.48C436.529 211.48 437.089 214.36 438.209 216.12C439.489 217.88 441.409 218.76 443.969 218.76C445.729 218.76 447.409 218.36 449.009 217.56C450.609 216.76 452.529 215.48 454.769 213.72L457.409 217.8C454.049 220.36 450.849 222.52 447.809 224.28C444.769 225.88 440.689 226.68 435.569 226.68C430.929 226.68 427.089 225.88 424.049 224.28C421.009 222.68 418.689 220.36 417.089 217.32C415.649 214.12 414.929 210.12 414.929 205.32C410.609 212.52 405.409 217.88 399.329 221.4C393.409 224.92 386.689 226.68 379.169 226.68ZM387.809 217.08C393.089 217.08 397.969 215.56 402.449 212.52C407.089 209.48 411.249 204.92 414.929 198.84V151.8C413.009 154.52 410.209 156.84 406.529 158.76C402.849 160.52 398.849 162.36 394.529 164.28C390.209 166.04 386.049 168.2 382.049 170.76C378.209 173.16 375.009 176.36 372.449 180.36C369.889 184.36 368.609 189.56 368.609 195.96C368.609 202.36 370.289 207.48 373.649 211.32C377.169 215.16 381.889 217.08 387.809 217.08Z" fill="#121212"/>
<path d="M-3.81283e-06 369L0.326609 367.802C3.22983 367.585 5.47983 367.149 7.07661 366.496C8.74596 365.843 10.0887 364.754 11.1048 363.23C12.121 361.706 12.9919 359.565 13.7177 356.806L28.7419 302.915C29.5403 300.302 29.8669 298.343 29.7218 297.036C29.5766 295.73 28.8145 294.823 27.4355 294.315C26.129 293.734 24.0605 293.335 21.2298 293.117L21.5564 291.919C22.7177 291.992 24.2782 292.065 26.2379 292.137C28.2702 292.21 30.5202 292.246 32.9879 292.246C34.875 292.246 36.6169 292.21 38.2137 292.137C39.8831 292.065 41.2621 291.992 42.3508 291.919L50.8427 356.806L49.754 357.133L91.3427 292.028C92.8669 292.101 94.246 292.173 95.4798 292.246C96.7863 292.246 98.129 292.246 99.5081 292.246C102.339 292.246 105.06 292.21 107.673 292.137C110.359 292.065 112.5 291.992 114.097 291.919L113.77 293.117C110.649 293.335 108.29 293.698 106.694 294.206C105.097 294.714 103.863 295.621 102.992 296.927C102.194 298.234 101.395 300.23 100.597 302.915L85.3548 358.004C84.629 360.617 84.3024 362.577 84.375 363.883C84.5202 365.19 85.246 366.097 86.5524 366.605C87.9314 367.113 90.0363 367.512 92.8669 367.802L92.5403 369C90.871 368.855 88.6935 368.782 86.0081 368.782C83.3952 368.71 80.4919 368.673 77.2984 368.673C73.7419 368.673 70.5847 368.71 67.8266 368.782C65.0685 368.782 62.8911 368.855 61.2944 369L61.621 367.802C64.6694 367.585 66.9556 367.222 68.4798 366.714C70.0766 366.133 71.2742 365.19 72.0726 363.883C72.871 362.504 73.5968 360.544 74.25 358.004L92.2137 293.879H91.5605L43.004 369.98H41.8064L32.2258 297.036H31.6814L15.0242 356.806C14.2258 359.565 13.9355 361.742 14.1532 363.339C14.371 364.863 15.2056 365.952 16.6573 366.605C18.1814 367.185 20.3952 367.585 23.2984 367.802L22.9718 369C21.5202 368.927 19.7419 368.855 17.6371 368.782C15.6048 368.71 13.5726 368.673 11.5403 368.673C9.50806 368.673 7.43951 368.71 5.33467 368.782C3.30242 368.855 1.52419 368.927 -3.81283e-06 369ZM126.686 370.524C121.025 370.524 116.597 368.673 113.404 364.972C110.21 361.198 108.613 355.972 108.613 349.294C108.613 344.286 109.448 339.532 111.117 335.032C112.859 330.46 115.182 326.431 118.085 322.948C120.988 319.391 124.291 316.597 127.992 314.565C131.766 312.532 135.758 311.516 139.968 311.516C145.557 311.516 149.948 313.403 153.141 317.177C156.408 320.879 158.041 326.069 158.041 332.746C158.041 337.754 157.17 342.544 155.428 347.117C153.758 351.617 151.472 355.645 148.569 359.202C145.666 362.685 142.327 365.444 138.553 367.476C134.779 369.508 130.823 370.524 126.686 370.524ZM126.577 369.327C128.682 369.327 130.75 368.565 132.783 367.04C134.887 365.516 136.811 363.448 138.553 360.835C140.367 358.149 141.964 355.101 143.343 351.69C144.722 348.206 145.775 344.504 146.5 340.585C147.299 336.593 147.698 332.601 147.698 328.609C147.698 323.31 147.045 319.355 145.738 316.742C144.504 314.056 142.617 312.714 140.077 312.714C137.972 312.714 135.867 313.476 133.762 315C131.73 316.452 129.807 318.52 127.992 321.206C126.25 323.891 124.69 326.976 123.311 330.46C121.932 333.871 120.843 337.536 120.045 341.456C119.319 345.375 118.956 349.367 118.956 353.431C118.956 358.73 119.609 362.722 120.916 365.407C122.222 368.02 124.109 369.327 126.577 369.327ZM239.851 370.524C237.311 370.524 235.242 369.871 233.646 368.565C232.121 367.258 231.178 365.444 230.815 363.121C230.452 360.726 230.706 358.004 231.577 354.956L238.109 331.548C239.634 326.032 239.888 321.895 238.871 319.137C237.928 316.379 235.714 315 232.23 315C229.69 315 227.331 315.762 225.154 317.286C222.976 318.81 220.944 321.097 219.057 324.145L218.948 323.383C221.198 319.464 223.811 316.524 226.787 314.565C229.835 312.532 233.101 311.516 236.585 311.516C240.069 311.516 242.863 312.423 244.968 314.238C247.073 315.98 248.416 318.448 248.996 321.641C249.577 324.835 249.25 328.573 248.017 332.855L241.158 357.46C240.287 360.508 240.105 362.867 240.613 364.536C241.194 366.133 242.319 366.931 243.988 366.931C245.658 366.931 247.254 366.206 248.779 364.754C250.375 363.302 251.936 361.125 253.46 358.222L255.638 354.194H256.835L254.331 358.766C253.388 360.653 252.226 362.504 250.847 364.319C249.541 366.06 247.98 367.548 246.166 368.782C244.424 369.944 242.319 370.524 239.851 370.524ZM168.541 369L180.952 324.472C181.823 321.569 182.004 319.282 181.496 317.613C181.061 315.871 179.936 315 178.121 315C176.597 315 175 315.762 173.331 317.286C171.734 318.738 170.174 320.915 168.65 323.819L166.472 327.847H165.275L167.779 323.165C168.795 321.278 169.956 319.464 171.263 317.722C172.569 315.907 174.129 314.419 175.944 313.258C177.759 312.097 179.863 311.516 182.259 311.516C184.871 311.516 186.94 312.169 188.464 313.476C189.988 314.782 190.932 316.597 191.295 318.919C191.73 321.242 191.513 323.927 190.642 326.976L178.775 369H168.541ZM198.807 369L209.259 331.548C210.855 326.032 211.146 321.895 210.129 319.137C209.113 316.379 206.9 315 203.488 315C200.948 315 198.589 315.762 196.412 317.286C194.234 318.81 192.166 321.097 190.206 324.145L190.097 323.383C192.42 319.464 195.069 316.524 198.045 314.565C201.093 312.532 204.359 311.516 207.843 311.516C211.254 311.516 214.013 312.423 216.117 314.238C218.222 315.98 219.565 318.448 220.146 321.641C220.726 324.835 220.4 328.573 219.166 332.855L209.041 369H198.807ZM281.141 370.524C275.624 370.524 271.378 368.746 268.403 365.19C265.427 361.633 263.939 356.552 263.939 349.948C263.939 344.867 264.81 340.04 266.552 335.468C268.294 330.823 270.689 326.722 273.737 323.165C276.786 319.536 280.233 316.706 284.08 314.673C287.999 312.569 292.137 311.516 296.491 311.516C300.193 311.516 303.024 312.315 304.983 313.911C306.943 315.508 307.923 317.794 307.923 320.77C307.923 324.327 306.471 327.774 303.568 331.113C300.737 334.452 296.745 337.464 291.592 340.149C286.512 342.762 280.56 344.867 273.737 346.464V345.484C279.181 343.96 283.753 341.964 287.455 339.496C291.157 337.028 293.987 334.198 295.947 331.004C297.907 327.738 298.887 324.181 298.887 320.335C298.887 317.867 298.451 315.98 297.58 314.673C296.782 313.367 295.584 312.714 293.987 312.714C291.81 312.714 289.56 313.839 287.237 316.089C284.915 318.339 282.774 321.315 280.814 325.016C278.927 328.718 277.366 332.746 276.132 337.101C274.971 341.456 274.391 345.774 274.391 350.056C274.391 355.573 275.37 359.782 277.33 362.685C279.362 365.589 282.266 367.04 286.04 367.04C289.306 367.04 292.245 365.988 294.858 363.883C297.544 361.706 299.975 358.367 302.153 353.867H303.35C300.882 359.31 297.762 363.448 293.987 366.278C290.213 369.109 285.931 370.524 281.141 370.524ZM361.614 370.524C359.074 370.524 357.005 369.871 355.408 368.565C353.884 367.258 352.941 365.444 352.578 363.121C352.215 360.726 352.469 358.004 353.34 354.956L359.872 331.766C361.396 326.323 361.578 322.185 360.416 319.355C359.255 316.452 356.896 315 353.34 315C350.727 315 348.332 315.798 346.154 317.395C343.977 318.919 341.908 321.242 339.949 324.363L339.84 323.492C342.235 319.427 344.957 316.415 348.005 314.456C351.054 312.496 354.429 311.516 358.13 311.516C363.429 311.516 367.13 313.476 369.235 317.395C371.412 321.242 371.594 326.395 369.779 332.855L362.921 357.46C362.05 360.508 361.868 362.867 362.376 364.536C362.957 366.133 364.082 366.931 365.751 366.931C367.421 366.931 369.054 366.206 370.65 364.754C372.247 363.23 373.771 361.052 375.223 358.222L377.4 354.194H378.598L376.203 358.766C375.187 360.653 373.989 362.504 372.61 364.319C371.304 366.06 369.743 367.548 367.929 368.782C366.187 369.944 364.082 370.524 361.614 370.524ZM318.175 369L330.586 324.472C331.457 321.569 331.638 319.282 331.13 317.613C330.622 315.871 329.461 315 327.646 315C326.05 315 324.453 315.762 322.856 317.286C321.332 318.738 319.808 320.915 318.283 323.819L316.106 327.847H314.908L317.412 323.165C318.429 321.278 319.59 319.464 320.896 317.722C322.203 315.907 323.763 314.419 325.578 313.258C327.392 312.097 329.497 311.516 331.892 311.516C334.433 311.516 336.465 312.169 337.989 313.476C339.513 314.782 340.493 316.597 340.929 318.919C341.364 321.242 341.146 323.927 340.275 326.976L328.408 369H318.175ZM398.35 370.524C394.358 370.524 391.491 369.073 389.749 366.169C388.079 363.266 387.898 359.528 389.204 354.956L405.535 296.492C407.35 296.419 409.164 296.238 410.979 295.948C412.793 295.657 414.535 295.294 416.204 294.859L398.785 357.677C397.914 360.726 397.805 363.048 398.458 364.645C399.112 366.169 400.418 366.931 402.378 366.931C404.12 366.931 405.825 366.169 407.495 364.645C409.237 363.121 410.906 360.907 412.503 358.004L414.462 354.194H415.769L413.047 359.31C412.104 360.98 410.979 362.685 409.672 364.427C408.366 366.169 406.769 367.621 404.882 368.782C403.067 369.944 400.89 370.524 398.35 370.524ZM389.749 314.238L390.075 313.04H426.765L426.438 314.238H389.749Z" fill="#6E6E6E"/>
<path d="M432.749 370.694C430.572 370.694 428.717 370.008 427.184 368.637C425.733 367.185 425.007 365.452 425.007 363.435C425.007 361.016 425.854 359 427.547 357.387C429.322 355.774 431.418 354.968 433.838 354.968C436.096 354.968 437.91 355.653 439.281 357.024C440.733 358.395 441.459 360.129 441.459 362.226C441.459 364.565 440.612 366.581 438.918 368.274C437.225 369.887 435.168 370.694 432.749 370.694Z" fill="#D93025"/>
</svg>
